<svg xmlns="http://www.w3.org/2000/svg" xml:space="preserve" width="850px" height="850px" version="1.1" style="shape-rendering:geometricPrecision; text-rendering:geometricPrecision; image-rendering:optimizeQuality; fill-rule:evenodd; clip-rule:evenodd" viewBox="0 0 850 850" xmlns:xlink="http://www.w3.org/1999/xlink">
 <defs>
  <style type="text/css">
   
    .fil0 {fill:#AADDE3}
    .fil1 {fill:#52ABB3}
   
  </style>
 </defs>
 <g id="Layer_x0020_1">
  <metadata id="CorelCorpID_0Corel-Layer"/>
  <circle class="fil0" cx="425" cy="425" r="425"/>
  <path class="fil1" d="M674 625l-498 0c-4,0 -7,-3 -7,-7l0 -45c0,-4 3,-7 7,-7 8,0 15,-7 15,-16 0,-8 -7,-15 -15,-15l505 0 0 83c0,4 -3,7 -7,7zm-505 -104l0 -32 512 0 0 32 -512 0zm7 -46l0 0c15,0 28,-12 28,-27 0,-15 -13,-28 -28,-28 -4,0 -7,-3 -7,-7l0 -67c0,-4 3,-7 7,-7l498 0c4,0 7,3 7,7l0 82c0,4 -3,7 -7,7 -11,0 -20,9 -20,20 0,11 9,20 20,20l-498 0z"/>
  <path class="fil1" d="M232 325l147 -36c8,16 25,27 44,27 27,0 49,-23 49,-50l13 -3c3,24 24,43 49,43 19,0 37,-12 44,-29 40,12 70,28 89,48l-435 0z"/>
  <path class="fil1" d="M534 292c-19,0 -35,-16 -35,-35 0,-20 15,-35 35,-35 19,0 35,16 35,35 0,19 -16,35 -35,35z"/>
  <path class="fil1" d="M534 236c-4,0 -7,-3 -7,-6 0,-2 -1,-20 8,-29 3,-4 8,-6 14,-6 4,0 7,3 7,7 0,4 -3,7 -7,7 -2,0 -3,1 -4,2 -4,4 -4,13 -4,18 0,3 -3,7 -7,7 0,0 0,0 0,0z"/>
  <path class="fil1" d="M423 302c-20,0 -35,-16 -35,-36 0,-19 16,-35 35,-35 19,0 35,16 35,35 0,19 -16,36 -35,36z"/>
  <path class="fil1" d="M423 245c-4,0 -7,-3 -7,-6 0,-2 -1,-19 7,-28 4,-4 9,-6 15,-6 4,0 7,3 7,7 0,4 -3,7 -7,7 -2,0 -3,0 -4,2 -4,3 -4,13 -4,16 0,4 -3,8 -7,8 0,0 0,0 0,0z"/>
 </g>
</svg>
