<svg xmlns="http://www.w3.org/2000/svg" xml:space="preserve" width="850px" height="850px" version="1.1" style="shape-rendering:geometricPrecision; text-rendering:geometricPrecision; image-rendering:optimizeQuality; fill-rule:evenodd; clip-rule:evenodd" viewBox="0 0 850 850" xmlns:xlink="http://www.w3.org/1999/xlink">
 <defs>
  <style type="text/css">
   
    .fil1 {fill:#FEFEFE}
    .fil0 {fill:#571845}
   
  </style>
 </defs>
 <g id="Layer_x0020_1">
  <metadata id="CorelCorpID_0Corel-Layer"/>
  <circle class="fil0" cx="425" cy="425" r="425"/>
  <g id="_577226872">
   <g>
    <path class="fil1" d="M674 625l-498 0c-4,0 -7,-3 -7,-7l0 -45c0,-4 3,-7 7,-7 8,0 15,-7 15,-16 0,-8 -7,-15 -15,-15 -4,0 -7,-3 -7,-7l0 -46c0,-4 3,-7 7,-7 15,0 28,-12 28,-27 0,-15 -13,-28 -28,-28 -4,0 -7,-3 -7,-7l0 -67c0,-4 3,-7 7,-7l498 0c4,0 7,3 7,7l0 82c0,4 -3,7 -7,7 -11,0 -20,9 -20,20 0,11 9,20 20,20 4,0 7,3 7,7l0 136c0,4 -3,7 -7,7zm-491 -14l484 0 0 -123c-15,-3 -27,-17 -27,-33 0,-16 12,-30 27,-33l0 -69 -484 0 0 54c20,3 35,21 35,41 0,20 -15,37 -35,40l0 34c13,3 22,14 22,28 0,14 -9,26 -22,29l0 32z"/>
   </g>
   <g>
    <path class="fil1" d="M176 353c-3,0 -6,-2 -7,-5 -1,-4 2,-8 5,-9l229 -56c4,-1 8,2 9,5 1,4 -2,8 -5,9l-229 56c-1,0 -2,0 -2,0zm498 0c-2,0 -5,-1 -6,-3 -16,-28 -53,-50 -109,-63 -3,-1 -6,-5 -5,-8 1,-4 5,-7 9,-6 59,15 99,38 117,70 2,3 1,7 -3,9 -1,1 -2,1 -3,1zm-220 -68c-3,0 -6,-2 -7,-5 -1,-4 1,-8 5,-9l36 -9c1,0 2,0 3,0 0,0 8,1 20,2 3,0 6,4 6,8 0,4 -4,6 -8,6 -9,-1 -16,-1 -19,-2l-34 9c-1,0 -1,0 -2,0z"/>
   </g>
   <g>
    <path class="fil1" d="M655 489l-479 0c-4,0 -7,-3 -7,-7 0,-4 3,-7 7,-7l479 0c4,0 7,3 7,7 0,4 -3,7 -7,7z"/>
   </g>
   <g>
    <path class="fil1" d="M674 535l-498 0c-4,0 -7,-3 -7,-7 0,-4 3,-7 7,-7l498 0c4,0 7,3 7,7 0,4 -3,7 -7,7z"/>
   </g>
   <g>
    <path class="fil1" d="M534 322c-19,0 -35,-16 -35,-35 0,-20 15,-35 35,-35 19,0 35,16 35,35 0,19 -16,35 -35,35zm0 -56c-12,0 -21,9 -21,21 0,12 9,21 21,21 11,0 21,-10 21,-21 0,-12 -9,-21 -21,-21z"/>
   </g>
   <g>
    <path class="fil1" d="M534 266c-4,0 -7,-3 -7,-6 0,-2 -1,-19 8,-29 3,-4 8,-6 14,-6 4,0 7,3 7,7 0,4 -3,7 -7,7 -2,0 -3,1 -4,2 -4,4 -4,13 -4,18 0,3 -3,7 -7,7 0,0 0,0 0,0z"/>
   </g>
   <g>
    <path class="fil1" d="M433 332c-20,0 -35,-16 -35,-36 0,-19 16,-35 35,-35 19,0 35,16 35,35 0,19 -16,36 -35,36zm0 -57c-12,0 -21,9 -21,21 0,12 9,22 21,22 11,0 21,-10 21,-22 0,-11 -10,-21 -21,-21z"/>
   </g>
   <g>
    <path class="fil1" d="M433 275c-4,0 -7,-3 -7,-6 0,-2 -1,-19 7,-28 4,-4 9,-6 15,-6 4,0 7,3 7,7 0,4 -3,7 -7,7 -2,0 -3,0 -4,2 -4,3 -4,13 -4,16 0,4 -3,8 -7,8 0,0 0,0 0,0z"/>
   </g>
  </g>
 </g>
</svg>
